<svg width="319" height="477" xmlns="http://www.w3.org/2000/svg" xmlns:xlink="http://www.w3.org/1999/xlink">
 <defs>
  <linearGradient id="a">
   <stop stop-color="#52ce63" offset="0"/>
   <stop stop-color="#51a256" offset="1"/>
  </linearGradient>
  <linearGradient y2="42.862855%" y1="0%" xlink:href="#a" x2="42.816933%" x1="55.342075%" id="b"/>
  <linearGradient y2="42.862855%" y1="0%" xlink:href="#a" x2="42.808103%" x1="55.348642%" id="c"/>
  <linearGradient y2="58.811243%" y1="0%" x2="50%" x1="50%" id="d">
   <stop stop-color="#8ae99c" offset="0"/>
   <stop stop-color="#52ce63" offset="1"/>
  </linearGradient>
  <linearGradient y2="100%" y1="17.472551%" x2="44.584719%" x1="51.37763%" id="e">
   <stop stop-color="#ffe56c" offset="0"/>
   <stop stop-color="#ffc63a" offset="1"/>
  </linearGradient>
 </defs>
 <g>
  <title>Layer 1</title>
  <g id="svg_1" fill-rule="evenodd" fill="none">
   <g id="svg_2" transform="matrix(0.992546 0.121869 -0.121869 0.992546 33.9221 0.976691)">
    <path id="svg_3" fill="url(#b)" d="m138.96379,215.33867c28.28481,-34.45196 13.87571,-70.99761 -20.751,-113.17424s-95.02328,-51.27855 -104.64344,-39.56083c-9.62016,11.71771 -2.92276,86.22719 31.70395,128.40381c34.62672,42.17663 65.40567,58.78322 93.69049,24.33126z"/>
    <path id="svg_4" fill="url(#c)" d="m167.179,216.16212c28.28482,34.45196 58.28855,16.90113 92.91527,-25.27549c34.62672,-42.17662 42.09934,-115.74187 32.47917,-127.45958c-9.62016,-11.71771 -70.79193,-3.56003 -105.41865,38.6166s-48.26061,79.66652 -19.97579,114.11848z"/>
    <path id="svg_5" fill="url(#d)" d="m151.6986,197.19876c39.94183,0 50.95265,-38.25199 50.95265,-97.89875c0,-59.64675 -37.36774,-118.10125 -50.95265,-118.10125s-52.04735,58.4545 -52.04735,118.10125c0,59.64676 12.10551,97.89875 52.04735,97.89875z"/>
   </g>
   <path id="svg_6" fill="url(#e)" d="m150.47347,477c83.11886,0 150.52653,-24.14515 150.52653,-133.64515s-67.40767,-199.35485 -150.52653,-199.35485c-83.11885,0 -150.47347,89.85485 -150.47347,199.35485s67.35462,133.64515 150.47347,133.64515z"/>
   <ellipse id="svg_7" ry="10" rx="21.5" fill="#eaadcc" cy="311" cx="226.5"/>
   <ellipse id="svg_8" transform="matrix(0.992546 0.121869 -0.121869 0.992546 40.859 -10.0393)" ry="10" rx="21.5" fill="#eaadcc" cy="309.32245" cx="65.82857"/>
   <g id="svg_9" transform="matrix(-0.999391 0.0348995 0.0348995 0.999391 269.285 271.028)">
    <path id="svg_10" stroke-width="6" stroke-linejoin="round" stroke-linecap="round" stroke="#000" d="m106.24473,32.7431c6.65047,5.02986 14.19478,6.91285 22.63292,5.64894c8.43815,-1.26392 14.59493,-4.99962 18.47035,-11.20715"/>
    <path id="svg_11" fill="#000" d="m187.64282,-22.17196c-5.93754,0 -11.31278,2.4063 -15.20364,6.29681c-3.89094,3.89058 -6.29748,9.26545 -6.29748,15.20263c0,5.93769 2.40649,11.31274 6.29729,15.20343c3.89089,3.89076 9.2662,6.29713 15.20383,6.29713c5.93711,0 11.3119,-2.40639 15.20239,-6.29723c3.8903,-3.89066 6.29649,-9.26567 6.29649,-15.20333c0,-5.93715 -2.40624,-11.31198 -6.29668,-15.20253c-3.89047,-3.89059 -9.26518,-6.29691 -15.2022,-6.29691z"/>
    <path id="svg_13" fill="#000" d="m57.6417,-12.17196c-5.93753,0 -11.31243,2.40627 -15.20299,6.29672c-3.8907,3.89057 -6.29701,9.26547 -6.29701,15.20272c0,5.93775 2.40626,11.31284 6.29682,15.20351c3.89059,3.89071 9.26556,6.29705 15.20318,6.29705c5.93712,0 11.31225,-2.40642 15.20304,-6.29732c3.89054,-3.89067 6.29696,-9.26564 6.29696,-15.20324c0,-5.93709 -2.40647,-11.31188 -6.29715,-15.20245c-3.89076,-3.89064 -9.26582,-6.29699 -15.20285,-6.29699z"/>
    <g id="svg_14" fill="#fff">
     <path id="svg_15" stroke-width="3" stroke="#fff" fill-rule="nonzero" d="m169.1417,-0.67252c0,10.21852 8.28291,18.50056 18.50112,18.50056c10.21709,0 18.49888,-8.28204 18.49888,-18.50056c0,-10.2174 -8.28179,-18.49944 -18.49888,-18.49944c-10.21821,0 -18.50112,8.28204 -18.50112,18.49944zm-6,0c0,-13.5312 10.96929,-24.49944 24.50112,-24.49944c13.53084,0 24.49888,10.96837 24.49888,24.49944c0,13.53196 -10.96781,24.50056 -24.49888,24.50056c-13.53206,0 -24.50112,-10.96847 -24.50112,-24.50056z"/>
     <path id="svg_16" stroke-width="3" stroke="#fff" fill-rule="nonzero" d="m39.1417,9.32748c0,10.21852 8.28179,18.50056 18.5,18.50056c10.21709,0 18.5,-8.28204 18.5,-18.50056c0,-10.2174 -8.28291,-18.49944 -18.5,-18.49944c-10.21821,0 -18.5,8.28204 -18.5,18.49944zm-6,0c0,-13.5313 10.96827,-24.49944 24.5,-24.49944c13.53094,0 24.5,10.96847 24.5,24.49944c0,13.53186 -10.96883,24.50056 -24.5,24.50056c-13.53196,0 -24.5,-10.96837 -24.5,-24.50056z"/>
    </g>
   </g>
   <g id="svg_18" stroke-width="11" stroke-linecap="round">
    <g id="svg_19" stroke="#ecb732">
     <path id="svg_20" d="m36.5,353.5l74,77"/>
     <path id="svg_21" d="m100.5,362.5l-47,50"/>
    </g>
    <g id="svg_22" transform="matrix(-1 0 0 1 298 377)" stroke="#ecb732">
     <path id="svg_23" d="m34.5,-23.5l74,77"/>
     <path id="svg_24" d="m98.5,-14.5l-47,50"/>
    </g>
    <g id="svg_25" transform="matrix(0 1 -1 0 215 207)" stroke="#ffc73b">
     <path id="svg_26" d="m-23.5,34.5l49,49"/>
     <path id="svg_27" d="m25.5,44.5l-49,49"/>
    </g>
   </g>
  </g>
 </g>
</svg>